<svg xmlns="http://www.w3.org/2000/svg" width="1200" height="800" viewBox="0 0 1200 800" role="img" aria-labelledby="title-nada desc-nada">
  <title id="title-nada">Fundo prática Nada</title>
  <desc id="desc-nada">Campo escuro com círculo respiratório e centro vazio para a prática.</desc>

  <defs>
    <radialGradient id="core-nada" cx="50%" cy="50%" r="55%">
      <stop offset="0" stop-color="#20d3ee" stop-opacity="0.7"/>
      <stop offset="0.45" stop-color="#a78bfa" stop-opacity="0.22"/>
      <stop offset="1" stop-color="#07090f" stop-opacity="0"/>
    </radialGradient>
    <linearGradient id="gold-nada" x1="0" x2="1" y1="0" y2="1">
      <stop offset="0" stop-color="#20d3ee"/>
      <stop offset="0.52" stop-color="#d4af37"/>
      <stop offset="1" stop-color="#a78bfa"/>
    </linearGradient>
    <filter id="glow-nada" x="-30%" y="-30%" width="160%" height="160%">
      <feGaussianBlur stdDeviation="8" result="blur"/>
      <feMerge><feMergeNode in="blur"/><feMergeNode in="SourceGraphic"/></feMerge>
    </filter>
  </defs>
  <rect width="1200" height="800" fill="#07090f"/>
  <rect x="12" y="12" width="1176" height="776" rx="22" fill="none" stroke="#d5e2ff" stroke-opacity="0.12"/>

  <rect width="1200" height="800" fill="url(#core-nada)" opacity="0.35"/>
  
  <g opacity=".09" stroke="#20d3ee" stroke-width="1">
    <path d="M80 120H1120M80 680H1120M160 80V720M1040 80V720"/>
    <path d="M240 160H420V92M960 640H780V708"/>
    <path d="M92 260H230M1108 540H970"/>
  </g>
  <g transform="translate(600 400)">
    <circle r="250" fill="none" stroke="#20d3ee" stroke-opacity="0.2" stroke-width="2"/>
    <circle r="174" fill="none" stroke="#d4af37" stroke-opacity="0.28" stroke-width="2" stroke-dasharray="6 22"/>
    <circle r="90" fill="#07090f" stroke="#a78bfa" stroke-opacity="0.34" stroke-width="2"/>
    <path d="M-340 0C-230-84-130-84 0 0S230 84 340 0" fill="none" stroke="#20d3ee" stroke-opacity="0.28" stroke-width="3"/>
    <path d="M-300 62C-190 2-100 2 0 62s190 60 300 0" fill="none" stroke="#d4af37" stroke-opacity="0.18" stroke-width="2"/>
  </g>
</svg>
